<svg width="40" height="40" viewBox="0 0 40 40" fill="none" xmlns="http://www.w3.org/2000/svg">
<path d="M3.3335 28.3333V27.3333C2.78121 27.3333 2.3335 27.781 2.3335 28.3333H3.3335ZM36.6668 28.3333H37.6668C37.6668 27.781 37.2191 27.3333 36.6668 27.3333V28.3333ZM3.3335 29.3333H36.6668V27.3333H3.3335V29.3333ZM35.6668 28.3333V31.6666H37.6668V28.3333H35.6668ZM35.0002 32.3333H5.00016V34.3333H35.0002V32.3333ZM4.3335 31.6666V28.3333H2.3335V31.6666H4.3335ZM5.00016 32.3333C4.63197 32.3333 4.3335 32.0348 4.3335 31.6666H2.3335C2.3335 33.1393 3.5274 34.3333 5.00016 34.3333V32.3333ZM35.6668 31.6666C35.6668 32.0348 35.3684 32.3333 35.0002 32.3333V34.3333C36.4729 34.3333 37.6668 33.1393 37.6668 31.6666H35.6668Z" fill="black"/>
<path d="M31.6665 8.33325H8.33317C7.4127 8.33325 6.6665 9.07944 6.6665 9.99992V26.6666C6.6665 27.5871 7.4127 28.3333 8.33317 28.3333H31.6665C32.587 28.3333 33.3332 27.5871 33.3332 26.6666V9.99992C33.3332 9.07944 32.587 8.33325 31.6665 8.33325Z" stroke="black" stroke-width="2" stroke-linecap="round" stroke-linejoin="round"/>
</svg>
