<svg width="40" height="40" viewBox="0 0 40 40" fill="none" xmlns="http://www.w3.org/2000/svg">
<path d="M15.8381 7.09536L14.9097 7.46675L14.9097 7.46675L15.8381 7.09536ZM17.5953 11.4881L18.5237 11.1167L18.5237 11.1167L17.5953 11.4881ZM17.0611 14.8601L17.8293 15.5002L17.8293 15.5002L17.0611 14.8601ZM16.1154 15.9948L16.8836 16.635L16.8836 16.635L16.1154 15.9948ZM16.3191 20.4858L15.612 21.1929L15.612 21.1929L16.3191 20.4858ZM19.5142 23.6809L20.2213 22.9738L20.2213 22.9738L19.5142 23.6809ZM24.0052 23.8846L23.365 23.1164L23.365 23.1164L24.0052 23.8846ZM25.14 22.9389L25.7801 23.7072L25.7801 23.7072L25.14 22.9389ZM28.5119 22.4047L28.1405 23.3332L28.1405 23.3332L28.5119 22.4047ZM32.9046 24.1619L33.276 23.2334L33.276 23.2334L32.9046 24.1619ZM8.15789 6H12.7432V4H8.15789V6ZM14.9097 7.46675L16.6668 11.8595L18.5237 11.1167L16.7666 6.72397L14.9097 7.46675ZM16.2928 14.2199L15.3472 15.3546L16.8836 16.635L17.8293 15.5002L16.2928 14.2199ZM15.612 21.1929L18.8071 24.388L20.2213 22.9738L17.0262 19.7787L15.612 21.1929ZM24.6454 24.6528L25.7801 23.7072L24.4998 22.1707L23.365 23.1164L24.6454 24.6528ZM28.1405 23.3332L32.5332 25.0903L33.276 23.2334L28.8833 21.4763L28.1405 23.3332ZM34 27.2568V31.8421H36V27.2568H34ZM31.8421 34C17.5699 34 6 22.4301 6 8.1579H4C4 23.5347 16.4653 36 31.8421 36V34ZM34 31.8421C34 33.0339 33.0339 34 31.8421 34V36C34.1384 36 36 34.1384 36 31.8421H34ZM32.5332 25.0903C33.4191 25.4447 34 26.3027 34 27.2568H36C36 25.4849 34.9212 23.8915 33.276 23.2334L32.5332 25.0903ZM25.7801 23.7072C26.4385 23.1585 27.3447 23.0149 28.1405 23.3332L28.8833 21.4763C27.4054 20.8851 25.7225 21.1518 24.4998 22.1707L25.7801 23.7072ZM18.8071 24.388C20.3919 25.9728 22.9236 26.0876 24.6454 24.6528L23.365 23.1164C22.4379 23.8889 21.0746 23.8271 20.2213 22.9738L18.8071 24.388ZM15.3472 15.3546C13.9124 17.0764 14.0273 19.6081 15.612 21.1929L17.0262 19.7787C16.1729 18.9254 16.1111 17.5621 16.8836 16.635L15.3472 15.3546ZM16.6668 11.8595C16.9851 12.6553 16.8415 13.5615 16.2928 14.2199L17.8293 15.5002C18.8482 14.2775 19.1149 12.5946 18.5237 11.1167L16.6668 11.8595ZM12.7432 6C13.6973 6 14.5553 6.58089 14.9097 7.46675L16.7666 6.72397C16.1085 5.07879 14.5151 4 12.7432 4V6ZM8.15789 4C5.86155 4 4 5.86155 4 8.1579H6C6 6.96612 6.96612 6 8.15789 6V4Z" fill="black"/>
</svg>
